<?xml version="1.0" encoding="UTF-8" standalone="no"?>
<!-- Creator: CorelDRAW 2019 (64-Bit Not for commercial use) -->

<svg
   xmlns:dc="http://purl.org/dc/elements/1.1/"
   xmlns:cc="http://creativecommons.org/ns#"
   xmlns:rdf="http://www.w3.org/1999/02/22-rdf-syntax-ns#"
   xmlns:svg="http://www.w3.org/2000/svg"
   xmlns="http://www.w3.org/2000/svg"
   xmlns:sodipodi="http://sodipodi.sourceforge.net/DTD/sodipodi-0.dtd"
   xmlns:inkscape="http://www.inkscape.org/namespaces/inkscape"
   xml:space="preserve"
   width="1087px"
   height="357px"
   version="1.1"
   style="shape-rendering:geometricPrecision; text-rendering:geometricPrecision; image-rendering:optimizeQuality; fill-rule:evenodd; clip-rule:evenodd"
   viewBox="0 0 622.36 204.6"
   id="svg10"
   sodipodi:docname="Ragam_Hias_Minangkabau_-_Siriah_Gadang.svg"
   inkscape:version="0.92.5 (2060ec1f9f, 2020-04-08)"><metadata
   id="metadata14"><rdf:RDF><cc:Work
       rdf:about=""><dc:format>image/svg+xml</dc:format><dc:type
         rdf:resource="http://purl.org/dc/dcmitype/StillImage" /></cc:Work></rdf:RDF></metadata><sodipodi:namedview
   pagecolor="#ffffff"
   bordercolor="#666666"
   borderopacity="1"
   objecttolerance="10"
   gridtolerance="10"
   guidetolerance="10"
   inkscape:pageopacity="0"
   inkscape:pageshadow="2"
   inkscape:window-width="1920"
   inkscape:window-height="1009"
   id="namedview12"
   showgrid="false"
   inkscape:zoom="1.0229991"
   inkscape:cx="574.30648"
   inkscape:cy="105.78483"
   inkscape:window-x="0"
   inkscape:window-y="0"
   inkscape:window-maximized="1"
   inkscape:current-layer="svg10" />
 <defs
   id="defs4">
  <style
   type="text/css"
   id="style2">
   <![CDATA[
    .fil0 {fill:#1D1819}
   ]]>
  </style>
 </defs>
 <g
   id="Layer_x0020_1"
   style="fill:#aa0000">
  <metadata
   id="CorelCorpID_0Corel-Layer" />
  <path
   class="fil0"
   d="m 622.36,204.6 v -5.22 c -0.57,0 -1.14,-0.47 -1.19,-1.41 l -0.27,-5.06 c -2.88,1.86 -6.82,2.12 -10.21,1.95 1.22,4.31 5.02,6.81 11.67,9.74 z m -207.45,-5.22 c -0.58,0 -1.15,-0.47 -1.2,-1.41 l -0.27,-5.06 c -2.87,1.86 -6.81,2.12 -10.21,1.95 1.22,4.31 5.03,6.81 11.68,9.74 6.64,-2.93 10.45,-5.43 11.67,-9.74 -3.4,0.17 -7.34,-0.09 -10.21,-1.95 l -0.27,5.06 c -0.05,0.94 -0.62,1.41 -1.19,1.41 z M 530.96,187.9 c -1.51,7.18 -6.11,13.23 -12.33,16.7 -6.22,-3.47 -10.81,-9.52 -12.33,-16.7 2.02,-1.37 3.98,-2.86 5.78,-4.62 1.65,-1.61 3.21,-3.44 4.56,-5.43 l 0.74,17.49 c 0.11,2.52 2.4,2.52 2.5,0 l 0.75,-17.49 c 1.34,1.99 2.91,3.82 4.55,5.43 1.81,1.76 3.77,3.25 5.78,4.62 z M 414.91,177.61 c 2.61,0 4.72,2.11 4.72,4.72 0,2.61 -2.11,4.73 -4.72,4.73 -2.61,0 -4.73,-2.12 -4.73,-4.73 0,-2.61 2.12,-4.72 4.73,-4.72 z m 0,-7.66 c 2.11,-5.2 4.74,-9.88 7.77,-14.04 1.03,2.3 2.2,4.54 3.52,6.7 -2.26,3.51 -4.19,7.39 -5.74,11.65 l -0.64,1.62 c -1.37,-1.04 -3.07,-1.66 -4.91,-1.66 -1.85,0 -3.55,0.62 -4.92,1.66 l -0.64,-1.62 c -1.55,-4.26 -3.48,-8.14 -5.74,-11.65 1.32,-2.16 2.49,-4.4 3.52,-6.7 3.04,4.16 5.66,8.84 7.78,14.04 z m 0,-149.4 c 2.61,0 4.72,2.11 4.72,4.72 0,2.61 -2.11,4.73 -4.72,4.73 -2.61,0 -4.73,-2.12 -4.73,-4.73 0,-2.61 2.12,-4.72 4.73,-4.72 z m 0,-20.41 c 8.22,3.63 12.1,6.6 12.1,13.16 v 0.18 c -3.9,0.39 -6.41,1.59 -9.13,4.25 -0.41,-0.17 -0.83,-0.29 -1.27,-0.39 0.03,-0.11 0.04,-0.23 0.03,-0.35 L 416.1,6.77 c -0.05,-0.94 -0.62,-1.41 -1.19,-1.41 -0.58,0 -1.15,0.47 -1.2,1.41 l -0.54,10.22 c -0.01,0.12 0,0.24 0.03,0.35 -0.43,0.1 -0.86,0.22 -1.26,0.39 -2.73,-2.66 -5.24,-3.86 -9.14,-4.25 V 13.3 c 0,-6.56 3.88,-9.53 12.11,-13.16 z m 103.72,9.48 v 0 c -5.92,7.32 -8.56,9.15 -18.93,16.15 -20.12,13.58 -40.9,27.89 -55.11,46.6 -1.48,-1.82 -2.87,-3.68 -4.17,-5.63 C 455,48.31 475.55,33.91 495.97,20.13 508.38,11.75 508.98,9.8 518.63,0 v 0 0 c 9.65,9.8 10.26,11.75 22.67,20.13 20.42,13.78 40.97,28.18 55.54,46.61 -1.3,1.95 -2.68,3.81 -4.16,5.63 -14.22,-18.71 -35,-33.02 -55.11,-46.6 -10.37,-7 -13.01,-8.83 -18.94,-16.15 z m 0,81.57 -1.86,1.48 c 0.21,-20.52 -0.28,-50.77 -8.91,-63.97 2.42,-5.39 8.91,-9.65 10.77,-9.65 v 0 0 c 1.87,0 8.35,4.26 10.77,9.65 -8.63,13.2 -9.12,43.45 -8.9,63.97 z m 0,18.11 c -4.23,0 -7.85,3.68 -9.26,8.77 -0.59,-0.62 -1.19,-1.22 -1.8,-1.81 -0.3,-2.31 -0.46,-4.26 -0.46,-5.64 0,-7.47 4.6,-9.65 11.52,-15.12 6.92,5.47 11.52,7.65 11.52,15.12 0,1.38 -0.16,3.33 -0.45,5.64 -0.62,0.59 -1.22,1.19 -1.8,1.81 -1.42,-5.09 -5.03,-8.77 -9.27,-8.77 z m 0,21.45 v 0 c -1.86,-3.35 -3.91,-6.39 -6.18,-9.18 0.37,-5.13 3,-9.05 6.18,-9.05 3.19,0 5.82,3.92 6.19,9.05 -2.27,2.79 -4.33,5.83 -6.19,9.18 z m 0,25.62 c -10.27,-14.03 -32.74,-19.5 -47.67,-18.73 -13.19,0.69 -25.62,5.29 -35.3,13.88 -1.04,-2.13 -1.91,-4.34 -2.62,-6.61 20.85,-17.14 51.75,-18.64 78.67,-4.78 -3.12,-6.58 -6.94,-11.68 -11.22,-15.88 -8.88,-8.68 -19.8,-13.5 -30.82,-19.55 -30.98,-17 -43.53,-34.06 -53.12,-68.74 1.45,0.89 3.14,1.39 4.9,1.65 h 0.03 l 0.11,0.02 h 0.01 0.02 c 3.16,0.43 10.08,0.25 12.74,-1.49 2.15,4.25 -0.86,9.02 -5.35,9.54 -0.95,0.01 -1.78,-0.08 -2.51,-0.26 8.68,25.07 21.09,39.42 46.17,53.31 11.52,6.37 23.23,11.33 32.89,20.89 5,4.95 9.46,11.47 13.07,19.73 v 0 0 c 3.61,-8.26 8.07,-14.78 13.07,-19.73 9.67,-9.56 21.37,-14.52 32.89,-20.89 25.08,-13.89 37.5,-28.24 46.17,-53.31 -0.73,0.18 -1.56,0.27 -2.51,0.26 -4.49,-0.52 -7.5,-5.29 -5.34,-9.54 2.65,1.74 9.57,1.92 12.73,1.49 h 0.02 0.01 l 0.12,-0.02 h 0.03 c 1.75,-0.26 3.45,-0.76 4.89,-1.65 -9.58,34.68 -22.14,51.74 -53.12,68.74 -11.01,6.05 -21.94,10.87 -30.81,19.55 -4.29,4.2 -8.1,9.3 -11.23,15.88 26.92,-13.86 57.83,-12.36 78.68,4.78 -0.72,2.27 -1.59,4.48 -2.62,6.61 -9.69,-8.59 -22.12,-13.19 -35.3,-13.88 -14.93,-0.77 -37.41,4.7 -47.68,18.73 z M 428.75,8.07 c -0.2,0 -0.4,0.01 -0.6,0.03 0.77,1.67 1.2,3.62 1.2,5.92 0,0.02 0,0.03 0,0.04 1.98,0.28 3.71,1.08 5.18,2.3 0.25,-0.66 0.38,-1.38 0.38,-2.13 0,-3.4 -2.75,-6.16 -6.16,-6.16 z m -11.6,182.05 c 1.78,1.55 4.98,2.38 10.36,1.97 6.32,-0.48 11.87,-5.07 8.82,-12.72 -1.9,-4.75 -5.12,-6.47 -8.46,-6.36 -3.33,0.24 -5.51,1.12 -7.74,3.12 1.59,1.34 2.66,3.29 2.85,5.49 2.35,-1.38 5.18,-1.76 8.04,-1.08 1.15,0.28 1.09,1.75 -0.07,1.83 -4.09,0.25 -6.47,1.44 -9.26,4.4 -1.05,1.6 -2.65,2.81 -4.54,3.35 z m 0,-157.06 c 1.78,1.55 4.98,2.38 10.36,1.97 6.32,-0.48 11.87,-5.07 8.82,-12.72 -1.9,-4.75 -5.12,-6.47 -8.46,-6.36 -3.33,0.24 -5.51,1.12 -7.74,3.12 1.59,1.35 2.66,3.29 2.85,5.49 2.35,-1.38 5.18,-1.76 8.04,-1.08 1.15,0.28 1.09,1.75 -0.07,1.83 -4.09,0.25 -6.47,1.44 -9.26,4.4 -1.05,1.6 -2.65,2.81 -4.54,3.35 z M 478.46,187 c -27.04,-0.37 -58.11,-16.82 -58.47,-61.62 -0.15,-18.2 4.49,-33.43 12.21,-46.64 1.45,1.91 2.99,3.76 4.63,5.56 -6.4,11.74 -10.21,25.14 -10.08,40.9 0.14,17.61 5.44,30.2 13.31,38.87 13.66,16.24 38.16,19.81 58.14,15.22 11.07,-2.55 14.38,-9.4 14.64,-13.3 0.4,-5.93 -2.16,-8.48 -5.22,-8.48 -1.99,0 -4.15,1.62 -4.4,4.66 -4.51,-1.09 -3.54,-7.22 1.55,-8.99 2.62,-0.91 5.96,-0.32 8.28,1.57 2.87,2.34 4.32,6.37 4.46,10.06 0.23,5.74 -3.24,11.6 -7.79,16.05 -7.96,7.78 -20.69,10.5 -26.14,23.74 -7.06,-3.19 -9.73,-12.83 -5.12,-17.6 z m 10.53,-42.15 c 4.57,-0.3 11.89,1.74 16.77,5.27 -6.71,-0.13 -9.53,1.99 -15,5.08 -2.89,1.63 -7.2,-0.84 -9.58,-3.31 1.12,-4.49 4.11,-6.8 7.81,-7.04 z m -44.18,20.61 c 11.3,1.83 14.29,-1.9 20.36,-1.17 2.13,0.25 3.93,1.2 5.26,3.51 -1,-6.01 7.76,-9.79 11.18,-3.34 1.72,-4.79 5.37,-5.81 8.61,-5.56 -2,4.28 -1.39,10.27 5.18,11.87 5.33,1.31 10.74,-2.15 10.3,-7.37 -0.12,-1.41 -0.13,-3.28 1.82,-3.43 1.49,-0.11 3.19,1.69 2.67,6.03 -0.44,3.74 -3.41,8.71 -12.59,10.82 -17.48,4.01 -39.47,1.47 -52.79,-11.36 z m 59,-52.57 c -0.05,-0.76 -0.08,-1.52 -0.08,-2.27 0,-2.95 0.62,-5.29 1.67,-7.28 -1.32,-0.8 -2.88,-1.27 -4.57,-1.27 -2.98,0 -5.6,1.47 -7.1,3.7 3.68,2.24 7.03,4.58 10.08,7.12 z m -20.11,3.55 c 4.98,2.92 9.73,6.17 13.88,10.23 1.96,1.91 3.72,3.95 5.31,6.11 -7.6,-2.83 -15.41,-4.54 -23.13,-5.13 -4.63,-0.35 -7.46,-5.59 -4.75,-9.61 2.09,-3.1 5.69,-3.36 8.69,-1.6 z M 442.1,91.79 c 0.82,-0.03 1.49,0.02 2.08,0.15 6.42,5.52 14.06,10.64 23.33,15.73 3.03,1.66 6.13,3.26 9.2,4.9 -1.86,0.71 -3.44,1.98 -4.53,3.62 -13.58,-6.99 -21.67,-9.36 -36.87,-12.32 -0.61,-1.1 -0.98,-2.35 -1.03,-3.69 -0.16,-4.48 3.35,-8.24 7.82,-8.39 z m 28.97,26.67 c -0.32,0.94 -0.49,1.96 -0.49,3.01 0,0.14 0,0.28 0.01,0.42 -12.46,-3.58 -24.67,-3.57 -37.57,-2.24 -1.62,-1.42 -2.67,-3.49 -2.76,-5.81 -0.11,-3.25 1.7,-6.12 4.42,-7.52 14.94,2.91 23.03,5.28 36.39,12.14 z m 0.02,6.11 c 0.36,1.05 0.9,2.02 1.58,2.86 -12.35,0.17 -24.28,3.29 -34.59,9.42 -4.46,0.13 -8.19,-3.36 -8.35,-7.82 -0.09,-2.78 1.22,-5.29 3.31,-6.82 12.85,-1.34 25.57,-1.32 38.05,2.36 z m 40.35,-27.83 c -0.88,-20.36 -3.96,-43.1 -15.63,-59.77 0.58,-3.69 3.77,-6.52 7.63,-6.52 0.68,0 1.34,0.09 1.97,0.26 8.33,12.43 9,43.74 8.78,63.94 -0.94,0.71 -1.87,1.4 -2.75,2.09 z m -18.12,4.46 C 484.2,87.35 473.39,74.45 460.15,64.54 c -0.26,-0.77 -0.4,-1.59 -0.4,-2.45 0,-4.26 3.46,-7.72 7.73,-7.72 0.32,0 0.63,0.02 0.94,0.05 13.9,14.73 21.87,27.56 28.85,44.78 -1.45,0.43 -2.79,1.11 -3.95,2 z m 6.51,-2.47 c -7.06,-17.52 -15.05,-30.52 -28.94,-45.39 -0.02,-0.24 -0.03,-0.48 -0.03,-0.72 0,-4.27 3.46,-7.73 7.72,-7.73 0.34,0 0.67,0.02 1,0.06 l -0.02,0.01 c 13.53,15.26 21.54,34.21 24.35,54.11 -0.98,-0.25 -2.01,-0.38 -3.08,-0.38 -0.34,0 -0.67,0.02 -1,0.04 z m 6.77,1.36 C 504,79.9 496.32,60.9 483.04,45.11 c 0.16,-4.12 3.55,-7.42 7.72,-7.42 0.94,0 1.84,0.17 2.67,0.48 12.09,16.48 14.73,40.1 15.55,60.67 -0.58,0.54 -1.12,1.09 -1.63,1.68 -0.24,-0.15 -0.49,-0.29 -0.75,-0.43 z m -16.02,4.07 c -10.47,-5.8 -21.21,-10.6 -30.64,-18.3 -3.21,-2.62 -6.09,-5.44 -8.68,-8.43 v 0 0 c -0.92,-1.27 -1.46,-2.83 -1.46,-4.52 0,-4.02 3.07,-7.32 6.99,-7.69 13.97,9.96 25.24,23.37 34.67,37.76 -0.32,0.37 -0.61,0.77 -0.88,1.18 z m 131.78,82.9 v -9.45 c -2.61,0 -4.73,2.11 -4.73,4.72 0,2.61 2.12,4.73 4.73,4.73 z m 0,-12.84 v -4.27 c -2.12,-5.2 -4.74,-9.88 -7.78,-14.04 -1.02,2.3 -2.19,4.54 -3.51,6.7 2.25,3.51 4.18,7.39 5.74,11.65 l 0.64,1.62 c 1.36,-1.04 3.06,-1.66 4.91,-1.66 z m 0,-144.22 v -9.45 c -2.61,0 -4.73,2.11 -4.73,4.72 0,2.61 2.12,4.73 4.73,4.73 z m 0,-24.64 V 0.14 c -8.23,3.63 -12.11,6.6 -12.11,13.16 v 0.18 c 3.9,0.39 6.41,1.59 9.14,4.25 0.41,-0.17 0.83,-0.29 1.26,-0.39 -0.02,-0.11 -0.03,-0.23 -0.03,-0.35 l 0.55,-10.22 c 0.05,-0.94 0.62,-1.41 1.19,-1.41 z m -13.85,2.71 c 0.2,0 0.4,0.01 0.6,0.03 -0.77,1.67 -1.2,3.62 -1.2,5.92 0,0.02 0,0.03 0,0.04 -1.97,0.28 -3.71,1.08 -5.18,2.3 -0.24,-0.66 -0.38,-1.38 -0.38,-2.13 0,-3.4 2.76,-6.16 6.16,-6.16 z m 11.6,182.05 c -1.77,1.55 -4.98,2.38 -10.35,1.97 -6.33,-0.48 -11.87,-5.07 -8.82,-12.72 1.89,-4.75 5.11,-6.47 8.46,-6.36 3.32,0.24 5.5,1.12 7.74,3.12 -1.6,1.34 -2.67,3.29 -2.86,5.49 -2.35,-1.38 -5.18,-1.76 -8.04,-1.08 -1.15,0.28 -1.08,1.75 0.07,1.83 4.1,0.25 6.47,1.44 9.26,4.4 1.05,1.6 2.65,2.81 4.54,3.35 z m 0,-157.06 c -1.77,1.55 -4.98,2.38 -10.35,1.97 -6.33,-0.48 -11.87,-5.07 -8.82,-12.72 1.89,-4.75 5.11,-6.47 8.46,-6.36 3.32,0.24 5.5,1.12 7.74,3.12 -1.6,1.35 -2.67,3.29 -2.86,5.49 -2.35,-1.38 -5.18,-1.76 -8.04,-1.08 -1.15,0.28 -1.08,1.75 0.07,1.83 4.1,0.25 6.47,1.44 9.26,4.4 1.05,1.6 2.65,2.81 4.54,3.35 z M 558.8,187 c 27.04,-0.37 58.11,-16.82 58.48,-61.62 0.15,-18.2 -4.49,-33.43 -12.21,-46.64 -1.46,1.91 -3,3.76 -4.64,5.56 6.41,11.74 10.21,25.14 10.09,40.9 -0.15,17.61 -5.45,30.2 -13.32,38.87 -13.65,16.24 -38.16,19.81 -58.14,15.22 -11.07,-2.55 -14.37,-9.4 -14.64,-13.3 -0.39,-5.93 2.16,-8.48 5.22,-8.48 1.99,0 4.15,1.62 4.41,4.66 4.5,-1.09 3.54,-7.22 -1.56,-8.99 -2.61,-0.91 -5.95,-0.32 -8.28,1.57 -2.86,2.34 -4.32,6.37 -4.46,10.06 -0.23,5.74 3.24,11.6 7.8,16.05 7.96,7.78 20.68,10.5 26.13,23.74 7.06,-3.19 9.73,-12.83 5.12,-17.6 z m -10.53,-42.15 c -4.57,-0.3 -11.89,1.74 -16.77,5.27 6.72,-0.13 9.53,1.99 15.01,5.08 2.88,1.63 7.19,-0.84 9.57,-3.31 -1.11,-4.49 -4.1,-6.8 -7.81,-7.04 z m 44.19,20.61 c -11.3,1.83 -14.3,-1.9 -20.37,-1.17 -2.13,0.25 -3.92,1.2 -5.26,3.51 1,-6.01 -7.75,-9.79 -11.18,-3.34 -1.72,-4.79 -5.37,-5.81 -8.6,-5.56 2,4.28 1.38,10.27 -5.19,11.87 -5.33,1.31 -10.74,-2.15 -10.3,-7.37 0.12,-1.41 0.13,-3.28 -1.82,-3.43 -1.48,-0.11 -3.18,1.69 -2.67,6.03 0.45,3.74 3.41,8.71 12.6,10.82 17.47,4.01 39.47,1.47 52.79,-11.36 z m -59.01,-52.57 c 0.05,-0.76 0.08,-1.52 0.08,-2.27 0,-2.95 -0.61,-5.29 -1.66,-7.28 1.31,-0.8 2.88,-1.27 4.56,-1.27 2.98,0 5.61,1.47 7.11,3.7 -3.68,2.24 -7.04,4.58 -10.09,7.12 z m 20.12,3.55 c -4.98,2.92 -9.74,6.17 -13.89,10.23 -1.96,1.91 -3.72,3.95 -5.3,6.11 7.6,-2.83 15.4,-4.54 23.13,-5.13 4.62,-0.35 7.45,-5.59 4.74,-9.61 -2.09,-3.1 -5.69,-3.36 -8.68,-1.6 z m 41.59,-24.65 c -0.81,-0.03 -1.48,0.02 -2.07,0.15 -6.42,5.52 -14.07,10.64 -23.33,15.73 -3.03,1.66 -6.13,3.26 -9.21,4.9 1.86,0.71 3.44,1.98 4.53,3.62 13.59,-6.99 21.67,-9.36 36.87,-12.32 0.61,-1.1 0.98,-2.35 1.03,-3.69 0.16,-4.48 -3.34,-8.24 -7.82,-8.39 z m -28.96,26.67 c 0.31,0.94 0.48,1.96 0.48,3.01 0,0.14 0,0.28 -0.01,0.42 12.46,-3.58 24.67,-3.57 37.57,-2.24 1.63,-1.42 2.68,-3.49 2.76,-5.81 0.12,-3.25 -1.7,-6.12 -4.41,-7.52 -14.94,2.91 -23.03,5.28 -36.39,12.14 z m -0.03,6.11 c -0.36,1.05 -0.9,2.02 -1.58,2.86 12.36,0.17 24.28,3.29 34.6,9.42 4.45,0.13 8.18,-3.36 8.34,-7.82 0.1,-2.78 -1.22,-5.29 -3.3,-6.82 -12.85,-1.34 -25.57,-1.32 -38.06,2.36 z M 525.82,96.74 c 0.89,-20.36 3.96,-43.1 15.64,-59.77 -0.58,-3.69 -3.78,-6.52 -7.63,-6.52 -0.68,0 -1.34,0.09 -1.97,0.26 -8.33,12.43 -9,43.74 -8.79,63.94 0.95,0.71 1.87,1.4 2.75,2.09 z m 18.12,4.46 c 9.13,-13.85 19.94,-26.75 33.18,-36.66 0.25,-0.77 0.39,-1.59 0.39,-2.45 0,-4.26 -3.46,-7.72 -7.72,-7.72 -0.32,0 -0.64,0.02 -0.94,0.05 -13.91,14.73 -21.88,27.56 -28.86,44.78 1.46,0.43 2.79,1.11 3.95,2 z m -6.5,-2.47 c 7.05,-17.52 15.04,-30.52 28.93,-45.39 0.03,-0.24 0.04,-0.48 0.04,-0.72 0,-4.27 -3.46,-7.73 -7.73,-7.73 -0.34,0 -0.67,0.02 -0.99,0.06 l 0.01,0.01 c -13.53,15.26 -21.53,34.21 -24.34,54.11 0.98,-0.25 2.01,-0.38 3.07,-0.38 0.34,0 0.68,0.02 1.01,0.04 z m -6.78,1.36 c 2.61,-20.19 10.29,-39.19 23.57,-54.98 -0.16,-4.12 -3.56,-7.42 -7.72,-7.42 -0.94,0 -1.84,0.17 -2.68,0.48 -12.09,16.48 -14.73,40.1 -15.55,60.67 0.58,0.54 1.13,1.09 1.63,1.68 0.24,-0.15 0.49,-0.29 0.75,-0.43 z m 16.02,4.07 c 10.47,-5.8 21.21,-10.6 30.65,-18.3 3.21,-2.62 6.09,-5.44 8.68,-8.43 v 0 0 c 0.91,-1.27 1.45,-2.83 1.45,-4.52 0,-4.02 -3.06,-7.32 -6.99,-7.69 -13.96,9.96 -25.24,23.37 -34.66,37.76 0.31,0.37 0.61,0.77 0.87,1.18 z m -339.23,95.22 c -0.57,0 -1.14,-0.47 -1.19,-1.41 l -0.27,-5.06 c -2.87,1.86 -6.82,2.12 -10.21,1.95 1.22,4.31 5.03,6.81 11.67,9.74 6.65,-2.93 10.45,-5.43 11.67,-9.74 -3.39,0.17 -7.33,-0.09 -10.2,-1.95 l -0.27,5.06 c -0.05,0.94 -0.63,1.41 -1.2,1.41 z M 323.51,187.9 c -1.52,7.18 -6.11,13.23 -12.33,16.7 -6.22,-3.47 -10.81,-9.52 -12.33,-16.7 2.01,-1.37 3.97,-2.86 5.78,-4.62 1.65,-1.61 3.21,-3.44 4.56,-5.43 l 0.74,17.49 c 0.1,2.52 2.39,2.52 2.5,0 l 0.74,-17.49 c 1.35,1.99 2.91,3.82 4.56,5.43 1.8,1.76 3.76,3.25 5.78,4.62 z M 207.45,177.61 c 2.61,0 4.73,2.11 4.73,4.72 0,2.61 -2.12,4.73 -4.73,4.73 -2.61,0 -4.72,-2.12 -4.72,-4.73 0,-2.61 2.11,-4.72 4.72,-4.72 z m 0,-7.66 c 2.12,-5.2 4.74,-9.88 7.78,-14.04 1.03,2.3 2.19,4.54 3.51,6.7 -2.25,3.51 -4.18,7.39 -5.74,11.65 l -0.64,1.62 c -1.36,-1.04 -3.06,-1.66 -4.91,-1.66 -1.84,0 -3.54,0.62 -4.91,1.66 l -0.64,-1.62 c -1.55,-4.26 -3.49,-8.14 -5.74,-11.65 1.32,-2.16 2.49,-4.4 3.52,-6.7 3.03,4.16 5.66,8.84 7.77,14.04 z m 0,-149.4 c 2.61,0 4.73,2.11 4.73,4.72 0,2.61 -2.12,4.73 -4.73,4.73 -2.61,0 -4.72,-2.12 -4.72,-4.73 0,-2.61 2.11,-4.72 4.72,-4.72 z m 0,-20.41 c 8.23,3.63 12.11,6.6 12.11,13.16 v 0.18 c -3.9,0.39 -6.41,1.59 -9.14,4.25 -0.4,-0.17 -0.83,-0.29 -1.26,-0.39 0.02,-0.11 0.04,-0.23 0.03,-0.35 L 208.65,6.77 c -0.05,-0.94 -0.63,-1.41 -1.2,-1.41 -0.57,0 -1.14,0.47 -1.19,1.41 l -0.54,10.22 c -0.01,0.12 0,0.24 0.03,0.35 -0.44,0.1 -0.86,0.22 -1.27,0.39 -2.73,-2.66 -5.23,-3.86 -9.13,-4.25 V 13.3 c 0,-6.56 3.88,-9.53 12.1,-13.16 z m 103.73,9.48 v 0 c -5.92,7.32 -8.56,9.15 -18.93,16.15 -20.12,13.58 -40.9,27.89 -55.11,46.6 -1.48,-1.82 -2.87,-3.68 -4.17,-5.63 C 247.54,48.31 268.09,33.91 288.51,20.13 300.92,11.75 301.53,9.8 311.18,0 v 0 0 c 9.65,9.8 10.26,11.75 22.67,20.13 20.41,13.78 40.96,28.18 55.54,46.61 -1.3,1.95 -2.69,3.81 -4.17,5.63 -14.21,-18.71 -34.99,-33.02 -55.11,-46.6 -10.37,-7 -13.01,-8.83 -18.93,-16.15 z m 0,81.57 -1.86,1.48 c 0.21,-20.52 -0.28,-50.77 -8.91,-63.97 2.42,-5.39 8.91,-9.65 10.77,-9.65 v 0 0 c 1.86,0 8.35,4.26 10.77,9.65 -8.63,13.2 -9.12,43.45 -8.91,63.97 z m 0,18.11 c -4.24,0 -7.85,3.68 -9.26,8.77 -0.59,-0.62 -1.19,-1.22 -1.8,-1.81 -0.3,-2.31 -0.46,-4.26 -0.46,-5.64 0,-7.47 4.6,-9.65 11.52,-15.12 6.92,5.47 11.52,7.65 11.52,15.12 0,1.38 -0.16,3.33 -0.46,5.64 -0.61,0.59 -1.21,1.19 -1.8,1.81 -1.41,-5.09 -5.02,-8.77 -9.26,-8.77 z m 0,21.45 v 0 c -1.86,-3.35 -3.91,-6.39 -6.19,-9.18 0.38,-5.13 3,-9.05 6.19,-9.05 3.18,0 5.81,3.92 6.18,9.05 -2.27,2.79 -4.32,5.83 -6.18,9.18 z m 0,25.62 c -10.27,-14.03 -32.75,-19.5 -47.68,-18.73 -13.18,0.69 -25.61,5.29 -35.3,13.88 -1.03,-2.13 -1.9,-4.34 -2.62,-6.61 20.85,-17.14 51.76,-18.64 78.68,-4.78 -3.12,-6.58 -6.94,-11.68 -11.23,-15.88 -8.87,-8.68 -19.79,-13.5 -30.81,-19.55 -30.98,-17 -43.54,-34.06 -53.12,-68.74 1.45,0.89 3.14,1.39 4.89,1.65 h 0.03 l 0.12,0.02 h 0.01 0.02 c 3.16,0.43 10.08,0.25 12.73,-1.49 2.16,4.25 -0.85,9.02 -5.34,9.54 -0.95,0.01 -1.78,-0.08 -2.51,-0.26 8.68,25.07 21.09,39.42 46.17,53.31 11.52,6.37 23.23,11.33 32.89,20.89 5,4.95 9.46,11.47 13.07,19.73 v 0 0 c 3.61,-8.26 8.07,-14.78 13.07,-19.73 9.66,-9.56 21.37,-14.52 32.89,-20.89 25.08,-13.89 37.49,-28.24 46.17,-53.31 -0.73,0.18 -1.56,0.27 -2.51,0.26 -4.49,-0.52 -7.5,-5.29 -5.35,-9.54 2.66,1.74 9.58,1.92 12.74,1.49 h 0.02 0.01 l 0.11,-0.02 h 0.03 c 1.76,-0.26 3.45,-0.76 4.9,-1.65 -9.59,34.68 -22.14,51.74 -53.12,68.74 -11.02,6.05 -21.94,10.87 -30.82,19.55 -4.28,4.2 -8.1,9.3 -11.22,15.88 26.92,-13.86 57.83,-12.36 78.68,4.78 -0.72,2.27 -1.59,4.48 -2.63,6.61 -9.68,-8.59 -22.11,-13.19 -35.29,-13.88 -14.94,-0.77 -37.41,4.7 -47.68,18.73 z M 221.3,8.07 c -0.2,0 -0.4,0.01 -0.6,0.03 0.77,1.67 1.2,3.62 1.2,5.92 0,0.02 0,0.03 0,0.04 1.97,0.28 3.71,1.08 5.18,2.3 0.25,-0.66 0.38,-1.38 0.38,-2.13 0,-3.4 -2.76,-6.16 -6.16,-6.16 z m -11.6,182.05 c 1.78,1.55 4.98,2.38 10.35,1.97 6.33,-0.48 11.88,-5.07 8.83,-12.72 -1.9,-4.75 -5.12,-6.47 -8.47,-6.36 -3.32,0.24 -5.5,1.12 -7.73,3.12 1.59,1.34 2.66,3.29 2.85,5.49 2.35,-1.38 5.18,-1.76 8.04,-1.08 1.15,0.28 1.09,1.75 -0.07,1.83 -4.1,0.25 -6.47,1.44 -9.26,4.4 -1.05,1.6 -2.65,2.81 -4.54,3.35 z m 0,-157.06 c 1.78,1.55 4.98,2.38 10.35,1.97 6.33,-0.48 11.88,-5.07 8.83,-12.72 -1.9,-4.75 -5.12,-6.47 -8.47,-6.36 -3.32,0.24 -5.5,1.12 -7.73,3.12 1.59,1.35 2.66,3.29 2.85,5.49 2.35,-1.38 5.18,-1.76 8.04,-1.08 1.15,0.28 1.09,1.75 -0.07,1.83 -4.1,0.25 -6.47,1.44 -9.26,4.4 -1.05,1.6 -2.65,2.81 -4.54,3.35 z M 271.01,187 c -27.04,-0.37 -58.11,-16.82 -58.48,-61.62 -0.14,-18.2 4.49,-33.43 12.22,-46.64 1.45,1.91 2.99,3.76 4.63,5.56 -6.41,11.74 -10.21,25.14 -10.09,40.9 0.15,17.61 5.45,30.2 13.32,38.87 13.65,16.24 38.16,19.81 58.14,15.22 11.07,-2.55 14.37,-9.4 14.64,-13.3 0.4,-5.93 -2.16,-8.48 -5.22,-8.48 -1.99,0 -4.15,1.62 -4.4,4.66 -4.51,-1.09 -3.55,-7.22 1.55,-8.99 2.62,-0.91 5.95,-0.32 8.28,1.57 2.86,2.34 4.32,6.37 4.46,10.06 0.23,5.74 -3.24,11.6 -7.8,16.05 -7.96,7.78 -20.68,10.5 -26.13,23.74 -7.06,-3.19 -9.73,-12.83 -5.12,-17.6 z m 10.53,-42.15 c 4.57,-0.3 11.89,1.74 16.77,5.27 -6.72,-0.13 -9.53,1.99 -15.01,5.08 -2.88,1.63 -7.19,-0.84 -9.57,-3.31 1.11,-4.49 4.1,-6.8 7.81,-7.04 z m -44.18,20.61 c 11.29,1.83 14.29,-1.9 20.36,-1.17 2.13,0.25 3.92,1.2 5.26,3.51 -1,-6.01 7.76,-9.79 11.18,-3.34 1.72,-4.79 5.37,-5.81 8.6,-5.56 -2,4.28 -1.38,10.27 5.19,11.87 5.33,1.31 10.74,-2.15 10.3,-7.37 -0.12,-1.41 -0.13,-3.28 1.82,-3.43 1.48,-0.11 3.19,1.69 2.67,6.03 -0.45,3.74 -3.41,8.71 -12.6,10.82 -17.47,4.01 -39.47,1.47 -52.78,-11.36 z m 59,-52.57 c -0.05,-0.76 -0.08,-1.52 -0.08,-2.27 0,-2.95 0.62,-5.29 1.67,-7.28 -1.32,-0.8 -2.89,-1.27 -4.57,-1.27 -2.98,0 -5.61,1.47 -7.11,3.7 3.69,2.24 7.04,4.58 10.09,7.12 z m -20.12,3.55 c 4.98,2.92 9.74,6.17 13.89,10.23 1.96,1.91 3.72,3.95 5.31,6.11 -7.61,-2.83 -15.41,-4.54 -23.14,-5.13 -4.62,-0.35 -7.45,-5.59 -4.74,-9.61 2.09,-3.1 5.69,-3.36 8.68,-1.6 z M 234.65,91.79 c 0.82,-0.03 1.49,0.02 2.07,0.15 6.42,5.52 14.07,10.64 23.33,15.73 3.03,1.66 6.13,3.26 9.21,4.9 -1.86,0.71 -3.44,1.98 -4.53,3.62 -13.58,-6.99 -21.67,-9.36 -36.87,-12.32 -0.61,-1.1 -0.98,-2.35 -1.03,-3.69 -0.16,-4.48 3.34,-8.24 7.82,-8.39 z m 28.97,26.67 c -0.32,0.94 -0.49,1.96 -0.49,3.01 0,0.14 0,0.28 0.01,0.42 -12.46,-3.58 -24.67,-3.57 -37.57,-2.24 -1.62,-1.42 -2.68,-3.49 -2.76,-5.81 -0.12,-3.25 1.7,-6.12 4.41,-7.52 14.94,2.91 23.03,5.28 36.4,12.14 z m 0.02,6.11 c 0.36,1.05 0.9,2.02 1.58,2.86 -12.36,0.17 -24.28,3.29 -34.6,9.42 -4.45,0.13 -8.18,-3.36 -8.34,-7.82 -0.1,-2.78 1.22,-5.29 3.3,-6.82 12.85,-1.34 25.57,-1.32 38.06,2.36 z m 40.35,-27.83 c -0.89,-20.36 -3.96,-43.1 -15.64,-59.77 0.58,-3.69 3.78,-6.52 7.64,-6.52 0.68,0 1.34,0.09 1.96,0.26 8.34,12.43 9,43.74 8.79,63.94 -0.95,0.71 -1.87,1.4 -2.75,2.09 z m -18.12,4.46 c -9.12,-13.85 -19.94,-26.75 -33.18,-36.66 -0.25,-0.77 -0.39,-1.59 -0.39,-2.45 0,-4.26 3.46,-7.72 7.73,-7.72 0.31,0 0.63,0.02 0.94,0.05 13.9,14.73 21.87,27.56 28.85,44.78 -1.45,0.43 -2.79,1.11 -3.95,2 z m 6.5,-2.47 c -7.05,-17.52 -15.04,-30.52 -28.93,-45.39 -0.02,-0.24 -0.04,-0.48 -0.04,-0.72 0,-4.27 3.46,-7.73 7.73,-7.73 0.34,0 0.67,0.02 0.99,0.06 l -0.01,0.01 c 13.53,15.26 21.53,34.21 24.35,54.11 -0.99,-0.25 -2.02,-0.38 -3.08,-0.38 -0.34,0 -0.67,0.02 -1.01,0.04 z m 6.78,1.36 C 296.55,79.9 288.86,60.9 275.58,45.11 c 0.16,-4.12 3.56,-7.42 7.72,-7.42 0.94,0 1.84,0.17 2.68,0.48 12.09,16.48 14.73,40.1 15.55,60.67 -0.58,0.54 -1.13,1.09 -1.63,1.68 -0.24,-0.15 -0.49,-0.29 -0.75,-0.43 z m -16.02,4.07 c -10.47,-5.8 -21.21,-10.6 -30.64,-18.3 -3.22,-2.62 -6.1,-5.44 -8.69,-8.43 h 0.01 -0.01 c -0.91,-1.27 -1.45,-2.83 -1.45,-4.52 0,-4.02 3.07,-7.32 6.99,-7.69 13.97,9.96 25.24,23.37 34.66,37.76 -0.31,0.37 -0.61,0.77 -0.87,1.18 z M 401.06,8.07 c 0.2,0 0.4,0.01 0.6,0.03 -0.77,1.67 -1.2,3.62 -1.2,5.92 0,0.02 0,0.03 0,0.04 -1.97,0.28 -3.71,1.08 -5.18,2.3 -0.25,-0.66 -0.38,-1.38 -0.38,-2.13 0,-3.4 2.76,-6.16 6.16,-6.16 z m 11.6,182.05 c -1.78,1.55 -4.98,2.38 -10.35,1.97 -6.33,-0.48 -11.88,-5.07 -8.83,-12.72 1.9,-4.75 5.12,-6.47 8.46,-6.36 3.33,0.24 5.51,1.12 7.74,3.12 -1.59,1.34 -2.66,3.29 -2.85,5.49 -2.35,-1.38 -5.18,-1.76 -8.04,-1.08 -1.15,0.28 -1.09,1.75 0.07,1.83 4.1,0.25 6.47,1.44 9.26,4.4 1.05,1.6 2.65,2.81 4.54,3.35 z m 0,-157.06 c -1.78,1.55 -4.98,2.38 -10.35,1.97 -6.33,-0.48 -11.88,-5.07 -8.83,-12.72 1.9,-4.75 5.12,-6.47 8.46,-6.36 3.33,0.24 5.51,1.12 7.74,3.12 -1.59,1.35 -2.66,3.29 -2.85,5.49 -2.35,-1.38 -5.18,-1.76 -8.04,-1.08 -1.15,0.28 -1.09,1.75 0.07,1.83 4.1,0.25 6.47,1.44 9.26,4.4 1.05,1.6 2.65,2.81 4.54,3.35 z M 351.35,187 c 27.04,-0.37 58.11,-16.82 58.48,-61.62 0.14,-18.2 -4.5,-33.43 -12.22,-46.64 -1.45,1.91 -2.99,3.76 -4.63,5.56 6.4,11.74 10.21,25.14 10.08,40.9 -0.14,17.61 -5.44,30.2 -13.31,38.87 -13.65,16.24 -38.16,19.81 -58.14,15.22 -11.07,-2.55 -14.38,-9.4 -14.64,-13.3 -0.4,-5.93 2.16,-8.48 5.22,-8.48 1.99,0 4.15,1.62 4.4,4.66 4.51,-1.09 3.55,-7.22 -1.55,-8.99 -2.62,-0.91 -5.96,-0.32 -8.28,1.57 -2.87,2.34 -4.32,6.37 -4.46,10.06 -0.23,5.74 3.24,11.6 7.79,16.05 7.97,7.78 20.69,10.5 26.14,23.74 7.06,-3.19 9.73,-12.83 5.12,-17.6 z m -10.53,-42.15 c -4.57,-0.3 -11.89,1.74 -16.77,5.27 6.72,-0.13 9.53,1.99 15,5.08 2.89,1.63 7.2,-0.84 9.58,-3.31 -1.12,-4.49 -4.11,-6.8 -7.81,-7.04 z M 385,165.46 c -11.29,1.83 -14.29,-1.9 -20.36,-1.17 -2.13,0.25 -3.92,1.2 -5.26,3.51 1,-6.01 -7.76,-9.79 -11.18,-3.34 -1.72,-4.79 -5.37,-5.81 -8.61,-5.56 2,4.28 1.39,10.27 -5.18,11.87 -5.33,1.31 -10.74,-2.15 -10.3,-7.37 0.12,-1.41 0.13,-3.28 -1.82,-3.43 -1.49,-0.11 -3.19,1.69 -2.67,6.03 0.44,3.74 3.41,8.71 12.59,10.82 17.48,4.01 39.48,1.47 52.79,-11.36 z m -59,-52.57 c 0.05,-0.76 0.08,-1.52 0.08,-2.27 0,-2.95 -0.62,-5.29 -1.67,-7.28 1.32,-0.8 2.89,-1.27 4.57,-1.27 2.98,0 5.6,1.47 7.1,3.7 -3.68,2.24 -7.03,4.58 -10.08,7.12 z m 20.12,3.55 c -4.99,2.92 -9.74,6.17 -13.89,10.23 -1.96,1.91 -3.72,3.95 -5.31,6.11 7.61,-2.83 15.41,-4.54 23.14,-5.13 4.62,-0.35 7.45,-5.59 4.74,-9.61 -2.09,-3.1 -5.69,-3.36 -8.68,-1.6 z m 41.59,-24.65 c -0.82,-0.03 -1.49,0.02 -2.08,0.15 -6.41,5.52 -14.06,10.64 -23.33,15.73 -3.03,1.66 -6.12,3.26 -9.2,4.9 1.86,0.71 3.44,1.98 4.53,3.62 13.58,-6.99 21.67,-9.36 36.87,-12.32 0.61,-1.1 0.98,-2.35 1.03,-3.69 0.16,-4.48 -3.34,-8.24 -7.82,-8.39 z m -28.97,26.67 c 0.32,0.94 0.49,1.96 0.49,3.01 0,0.14 0,0.28 -0.01,0.42 12.46,-3.58 24.67,-3.57 37.57,-2.24 1.62,-1.42 2.68,-3.49 2.76,-5.81 0.11,-3.25 -1.7,-6.12 -4.41,-7.52 -14.95,2.91 -23.03,5.28 -36.4,12.14 z m -0.02,6.11 c -0.36,1.05 -0.9,2.02 -1.58,2.86 12.36,0.17 24.28,3.29 34.59,9.42 4.46,0.13 8.19,-3.36 8.35,-7.82 0.1,-2.78 -1.22,-5.29 -3.3,-6.82 -12.86,-1.34 -25.57,-1.32 -38.06,2.36 z M 318.37,96.74 c 0.89,-20.36 3.96,-43.1 15.64,-59.77 -0.58,-3.69 -3.78,-6.52 -7.64,-6.52 -0.68,0 -1.34,0.09 -1.97,0.26 -8.33,12.43 -9,43.74 -8.78,63.94 0.95,0.71 1.87,1.4 2.75,2.09 z m 18.12,4.46 c 9.12,-13.85 19.93,-26.75 33.17,-36.66 0.26,-0.77 0.4,-1.59 0.4,-2.45 0,-4.26 -3.46,-7.72 -7.73,-7.72 -0.32,0 -0.63,0.02 -0.94,0.05 -13.9,14.73 -21.87,27.56 -28.85,44.78 1.45,0.43 2.79,1.11 3.95,2 z m -6.5,-2.47 c 7.05,-17.52 15.04,-30.52 28.93,-45.39 0.02,-0.24 0.03,-0.48 0.03,-0.72 0,-4.27 -3.45,-7.73 -7.72,-7.73 -0.34,0 -0.67,0.02 -0.99,0.06 l 0.01,0.01 c -13.53,15.26 -21.53,34.21 -24.35,54.11 0.98,-0.25 2.01,-0.38 3.08,-0.38 0.34,0 0.67,0.02 1.01,0.04 z m -6.78,1.36 c 2.6,-20.19 10.28,-39.19 23.56,-54.98 -0.15,-4.12 -3.55,-7.42 -7.71,-7.42 -0.94,0 -1.85,0.17 -2.68,0.48 -12.09,16.48 -14.73,40.1 -15.55,60.67 0.58,0.54 1.12,1.09 1.63,1.68 0.24,-0.15 0.49,-0.29 0.75,-0.43 z m 16.02,4.07 c 10.47,-5.8 21.21,-10.6 30.64,-18.3 3.22,-2.62 6.09,-5.44 8.68,-8.43 v 0 0 c 0.92,-1.27 1.46,-2.83 1.46,-4.52 0,-4.02 -3.07,-7.32 -6.99,-7.69 -13.97,9.96 -25.24,23.37 -34.67,37.76 0.32,0.37 0.62,0.77 0.88,1.18 z M 116.06,187.9 c -1.52,7.18 -6.11,13.23 -12.33,16.7 -6.23,-3.47 -10.82,-9.52 -12.33,-16.7 2.01,-1.37 3.97,-2.86 5.78,-4.62 1.64,-1.61 3.21,-3.44 4.55,-5.43 l 0.75,17.49 c 0.1,2.52 2.39,2.52 2.5,0 l 0.74,-17.49 c 1.34,1.99 2.91,3.82 4.56,5.43 1.8,1.76 3.76,3.25 5.78,4.62 z M 0,204.6 v -5.22 c 0.57,0 1.14,-0.47 1.19,-1.41 l 0.27,-5.06 c 2.88,1.86 6.82,2.12 10.21,1.95 -1.22,4.31 -5.03,6.81 -11.67,9.74 z m 0,-17.54 v -9.45 c 2.61,0 4.73,2.11 4.73,4.72 0,2.61 -2.12,4.73 -4.73,4.73 z m 0,-12.84 v -4.27 c 2.12,-5.2 4.74,-9.88 7.78,-14.04 1.02,2.3 2.19,4.54 3.51,6.7 -2.25,3.51 -4.19,7.39 -5.74,11.65 l -0.64,1.62 C 3.55,174.84 1.85,174.22 0,174.22 Z M 0,30 v -9.45 c 2.61,0 4.73,2.11 4.73,4.72 C 4.73,27.88 2.61,30 0,30 Z M 0,5.36 V 0.14 c 8.23,3.63 12.1,6.6 12.1,13.16 v 0.18 C 8.21,13.87 5.7,15.07 2.97,17.73 2.56,17.56 2.14,17.44 1.7,17.34 1.73,17.23 1.74,17.11 1.74,16.99 L 1.19,6.77 C 1.14,5.83 0.57,5.36 0,5.36 Z m 103.73,4.26 v 0 C 97.8,16.94 95.16,18.77 84.79,25.77 64.68,39.35 43.9,53.66 29.68,72.37 28.2,70.55 26.82,68.69 25.52,66.74 40.09,48.31 60.64,33.91 81.06,20.13 93.47,11.75 94.08,9.8 103.73,0 v 0 0 c 9.65,9.8 10.25,11.75 22.66,20.13 20.42,13.78 40.97,28.18 55.54,46.61 -1.3,1.95 -2.68,3.81 -4.16,5.63 -14.21,-18.71 -34.99,-33.02 -55.11,-46.6 -10.37,-7 -13.01,-8.83 -18.93,-16.15 z m 0,81.57 -1.87,1.48 c 0.22,-20.52 -0.27,-50.77 -8.9,-63.97 2.41,-5.39 8.9,-9.65 10.77,-9.65 v 0 0 c 1.86,0 8.35,4.26 10.77,9.65 -8.63,13.2 -9.13,43.45 -8.91,63.97 z m 0,18.11 c -4.24,0 -7.86,3.68 -9.27,8.77 -0.58,-0.62 -1.18,-1.22 -1.8,-1.81 -0.3,-2.31 -0.45,-4.26 -0.45,-5.64 0,-7.47 4.6,-9.65 11.52,-15.12 6.92,5.47 11.52,7.65 11.52,15.12 0,1.38 -0.16,3.33 -0.46,5.64 -0.61,0.59 -1.21,1.19 -1.8,1.81 -1.41,-5.09 -5.03,-8.77 -9.26,-8.77 z m 0,21.45 v 0 c -1.86,-3.35 -3.92,-6.39 -6.19,-9.18 0.37,-5.13 3,-9.05 6.19,-9.05 3.18,0 5.81,3.92 6.18,9.05 -2.27,2.79 -4.32,5.83 -6.18,9.18 z m 0,25.62 c -10.27,-14.03 -32.75,-19.5 -47.68,-18.73 -13.19,0.69 -25.61,5.29 -35.3,13.88 -1.03,-2.13 -1.9,-4.34 -2.62,-6.61 C 38.98,127.77 69.89,126.27 96.8,140.13 93.68,133.55 89.87,128.45 85.58,124.25 76.7,115.57 65.78,110.75 54.77,104.7 23.79,87.7 11.23,70.64 1.65,35.96 c 1.44,0.89 3.14,1.39 4.89,1.65 h 0.03 l 0.12,0.02 H 6.7 6.72 c 3.16,0.43 10.07,0.25 12.73,-1.49 2.16,4.25 -0.85,9.02 -5.34,9.54 -0.95,0.01 -1.78,-0.08 -2.51,-0.26 8.67,25.07 21.08,39.42 46.16,53.31 11.52,6.37 23.23,11.33 32.9,20.89 5,4.95 9.46,11.47 13.07,19.73 v 0 0 c 3.61,-8.26 8.07,-14.78 13.07,-19.73 9.66,-9.56 21.37,-14.52 32.89,-20.89 25.08,-13.89 37.49,-28.24 46.17,-53.31 -0.73,0.18 -1.56,0.27 -2.51,0.26 -4.49,-0.52 -7.5,-5.29 -5.35,-9.54 2.66,1.74 9.57,1.92 12.74,1.49 h 0.02 v 0 l 0.12,-0.02 h 0.03 c 1.75,-0.26 3.45,-0.76 4.9,-1.65 -9.59,34.68 -22.14,51.74 -53.13,68.74 -11.01,6.05 -21.93,10.87 -30.81,19.55 -4.29,4.2 -8.1,9.3 -11.22,15.88 26.92,-13.86 57.82,-12.36 78.67,4.78 -0.72,2.27 -1.59,4.48 -2.62,6.61 -9.68,-8.59 -22.11,-13.19 -35.3,-13.88 -14.93,-0.77 -37.41,4.7 -47.67,18.73 z M 13.85,8.07 c -0.21,0 -0.41,0.01 -0.6,0.03 0.76,1.67 1.2,3.62 1.2,5.92 0,0.02 0,0.03 0,0.04 1.97,0.28 3.71,1.08 5.18,2.3 0.24,-0.66 0.38,-1.38 0.38,-2.13 0,-3.4 -2.76,-6.16 -6.16,-6.16 z M 2.25,190.12 c 1.77,1.55 4.98,2.38 10.35,1.97 6.33,-0.48 11.87,-5.07 8.82,-12.72 -1.89,-4.75 -5.11,-6.47 -8.46,-6.36 -3.32,0.24 -5.5,1.12 -7.74,3.12 1.6,1.34 2.67,3.29 2.86,5.49 2.35,-1.38 5.18,-1.76 8.03,-1.08 1.16,0.28 1.09,1.75 -0.07,1.83 -4.09,0.25 -6.46,1.44 -9.25,4.4 -1.05,1.6 -2.66,2.81 -4.54,3.35 z m 0,-157.06 c 1.77,1.55 4.98,2.38 10.35,1.97 6.33,-0.48 11.87,-5.07 8.82,-12.72 -1.89,-4.75 -5.11,-6.47 -8.46,-6.36 -3.32,0.24 -5.5,1.12 -7.74,3.12 1.6,1.35 2.67,3.29 2.86,5.49 2.35,-1.38 5.18,-1.76 8.03,-1.08 1.16,0.28 1.09,1.75 -0.07,1.83 -4.09,0.25 -6.46,1.44 -9.25,4.4 -1.05,1.6 -2.66,2.81 -4.54,3.35 z M 63.55,187 C 36.52,186.63 5.45,170.18 5.08,125.38 4.93,107.18 9.57,91.95 17.29,78.74 c 1.46,1.91 3,3.76 4.63,5.56 -6.4,11.74 -10.21,25.14 -10.08,40.9 0.14,17.61 5.44,30.2 13.32,38.87 13.65,16.24 38.15,19.81 58.14,15.22 11.06,-2.55 14.37,-9.4 14.63,-13.3 0.4,-5.93 -2.15,-8.48 -5.21,-8.48 -1.99,0 -4.15,1.62 -4.41,4.66 -4.5,-1.09 -3.54,-7.22 1.55,-8.99 2.62,-0.91 5.96,-0.32 8.29,1.57 2.86,2.34 4.31,6.37 4.46,10.06 0.22,5.74 -3.25,11.6 -7.8,16.05 -7.96,7.78 -20.68,10.5 -26.13,23.74 -7.06,-3.19 -9.73,-12.83 -5.13,-17.6 z m 10.54,-42.15 c 4.57,-0.3 11.89,1.74 16.76,5.27 -6.71,-0.13 -9.52,1.99 -15,5.08 -2.89,1.63 -7.2,-0.84 -9.58,-3.31 1.12,-4.49 4.11,-6.8 7.82,-7.04 z M 29.9,165.46 c 11.3,1.83 14.29,-1.9 20.37,-1.17 2.12,0.25 3.92,1.2 5.26,3.51 -1.01,-6.01 7.75,-9.79 11.18,-3.34 1.72,-4.79 5.36,-5.81 8.6,-5.56 -2,4.28 -1.38,10.27 5.18,11.87 5.34,1.31 10.75,-2.15 10.3,-7.37 -0.11,-1.41 -0.12,-3.28 1.83,-3.43 1.48,-0.11 3.18,1.69 2.67,6.03 -0.45,3.74 -3.42,8.71 -12.6,10.82 -17.47,4.01 -39.47,1.47 -52.79,-11.36 z m 59.01,-52.57 c -0.05,-0.76 -0.09,-1.52 -0.09,-2.27 0,-2.95 0.62,-5.29 1.67,-7.28 -1.31,-0.8 -2.88,-1.27 -4.56,-1.27 -2.99,0 -5.61,1.47 -7.11,3.7 3.68,2.24 7.03,4.58 10.09,7.12 z m -20.12,3.55 c 4.98,2.92 9.74,6.17 13.89,10.23 1.95,1.91 3.72,3.95 5.3,6.11 -7.6,-2.83 -15.4,-4.54 -23.13,-5.13 -4.63,-0.35 -7.45,-5.59 -4.75,-9.61 2.09,-3.1 5.7,-3.36 8.69,-1.6 z M 27.2,91.79 c 0.81,-0.03 1.48,0.02 2.07,0.15 6.42,5.52 14.07,10.64 23.33,15.73 3.03,1.66 6.13,3.26 9.21,4.9 -1.86,0.71 -3.44,1.98 -4.53,3.62 -13.59,-6.99 -21.67,-9.36 -36.87,-12.32 -0.62,-1.1 -0.99,-2.35 -1.03,-3.69 -0.16,-4.48 3.34,-8.24 7.82,-8.39 z m 28.96,26.67 c -0.31,0.94 -0.48,1.96 -0.48,3.01 0,0.14 0,0.28 0,0.42 -12.45,-3.58 -24.67,-3.57 -37.56,-2.24 -1.63,-1.42 -2.68,-3.49 -2.76,-5.81 -0.12,-3.25 1.69,-6.12 4.41,-7.52 14.94,2.91 23.03,5.28 36.39,12.14 z m 0.03,6.11 c 0.36,1.05 0.9,2.02 1.58,2.86 -12.36,0.17 -24.28,3.29 -34.6,9.42 -4.45,0.13 -8.18,-3.36 -8.34,-7.82 -0.1,-2.78 1.21,-5.29 3.3,-6.82 12.85,-1.34 25.57,-1.32 38.06,2.36 z M 96.54,96.74 C 95.65,76.38 92.57,53.64 80.9,36.97 c 0.58,-3.69 3.77,-6.52 7.63,-6.52 0.68,0 1.34,0.09 1.97,0.26 8.33,12.43 9,43.74 8.78,63.94 -0.94,0.71 -1.86,1.4 -2.74,2.09 z M 78.42,101.2 C 69.29,87.35 58.48,74.45 45.24,64.54 c -0.25,-0.77 -0.39,-1.59 -0.39,-2.45 0,-4.26 3.45,-7.72 7.72,-7.72 0.32,0 0.63,0.02 0.94,0.05 13.9,14.73 21.87,27.56 28.86,44.78 -1.46,0.43 -2.79,1.11 -3.95,2 z m 6.5,-2.47 C 77.87,81.21 69.88,68.21 55.99,53.34 55.96,53.1 55.95,52.86 55.95,52.62 c 0,-4.27 3.46,-7.73 7.73,-7.73 0.33,0 0.66,0.02 0.99,0.06 l -0.01,0.01 C 78.18,60.22 86.19,79.17 89,99.07 c -0.98,-0.25 -2.01,-0.38 -3.07,-0.38 -0.34,0 -0.68,0.02 -1.01,0.04 z m 6.78,1.36 C 89.09,79.9 81.41,60.9 68.13,45.11 c 0.16,-4.12 3.55,-7.42 7.72,-7.42 0.94,0 1.84,0.17 2.67,0.48 12.1,16.48 14.74,40.1 15.55,60.67 -0.57,0.54 -1.12,1.09 -1.62,1.68 -0.25,-0.15 -0.5,-0.29 -0.75,-0.43 z m -16.02,4.07 C 65.2,98.36 54.47,93.56 45.03,85.86 41.82,83.24 38.94,80.42 36.35,77.43 v 0 0 C 35.44,76.16 34.9,74.6 34.9,72.91 c 0,-4.02 3.06,-7.32 6.98,-7.69 13.97,9.96 25.25,23.37 34.67,37.76 -0.32,0.37 -0.61,0.77 -0.87,1.18 z M 193.61,8.07 c 0.2,0 0.4,0.01 0.6,0.03 -0.77,1.67 -1.2,3.62 -1.2,5.92 0,0.02 0,0.03 0,0.04 -1.98,0.28 -3.72,1.08 -5.19,2.3 -0.24,-0.66 -0.37,-1.38 -0.37,-2.13 0,-3.4 2.75,-6.16 6.16,-6.16 z m 11.59,182.05 c -1.77,1.55 -4.98,2.38 -10.35,1.97 -6.32,-0.48 -11.87,-5.07 -8.82,-12.72 1.9,-4.75 5.11,-6.47 8.46,-6.36 3.32,0.24 5.5,1.12 7.74,3.12 -1.6,1.34 -2.66,3.29 -2.85,5.49 -2.35,-1.38 -5.18,-1.76 -8.04,-1.08 -1.15,0.28 -1.09,1.75 0.07,1.83 4.09,0.25 6.46,1.44 9.25,4.4 1.05,1.6 2.66,2.81 4.54,3.35 z m 0,-157.06 c -1.77,1.55 -4.98,2.38 -10.35,1.97 -6.32,-0.48 -11.87,-5.07 -8.82,-12.72 1.9,-4.75 5.11,-6.47 8.46,-6.36 3.32,0.24 5.5,1.12 7.74,3.12 -1.6,1.35 -2.66,3.29 -2.85,5.49 -2.35,-1.38 -5.18,-1.76 -8.04,-1.08 -1.15,0.28 -1.09,1.75 0.07,1.83 4.09,0.25 6.46,1.44 9.25,4.4 1.05,1.6 2.66,2.81 4.54,3.35 z M 143.9,187 c 27.04,-0.37 58.11,-16.82 58.47,-61.62 0.15,-18.2 -4.49,-33.43 -12.21,-46.64 -1.45,1.91 -2.99,3.76 -4.63,5.56 6.4,11.74 10.21,25.14 10.08,40.9 -0.14,17.61 -5.44,30.2 -13.31,38.87 -13.66,16.24 -38.16,19.81 -58.14,15.22 -11.07,-2.55 -14.38,-9.4 -14.64,-13.3 -0.4,-5.93 2.15,-8.48 5.22,-8.48 1.98,0 4.15,1.62 4.4,4.66 4.5,-1.09 3.54,-7.22 -1.55,-8.99 -2.62,-0.91 -5.96,-0.32 -8.28,1.57 -2.87,2.34 -4.32,6.37 -4.47,10.06 -0.22,5.74 3.25,11.6 7.8,16.05 7.96,7.78 20.69,10.5 26.13,23.74 7.06,-3.19 9.74,-12.83 5.13,-17.6 z m -10.53,-42.15 c -4.57,-0.3 -11.89,1.74 -16.77,5.27 6.71,-0.13 9.53,1.99 15,5.08 2.89,1.63 7.2,-0.84 9.58,-3.31 -1.12,-4.49 -4.11,-6.8 -7.81,-7.04 z m 44.18,20.61 c -11.3,1.83 -14.29,-1.9 -20.36,-1.17 -2.13,0.25 -3.93,1.2 -5.26,3.51 1,-6.01 -7.76,-9.79 -11.18,-3.34 -1.73,-4.79 -5.37,-5.81 -8.61,-5.56 2,4.28 1.39,10.27 -5.18,11.87 -5.33,1.31 -10.74,-2.15 -10.3,-7.37 0.12,-1.41 0.12,-3.28 -1.83,-3.43 -1.48,-0.11 -3.18,1.69 -2.66,6.03 0.44,3.74 3.41,8.71 12.59,10.82 17.48,4.01 39.47,1.47 52.79,-11.36 z m -59.01,-52.57 c 0.06,-0.76 0.09,-1.52 0.09,-2.27 0,-2.95 -0.62,-5.29 -1.67,-7.28 1.31,-0.8 2.88,-1.27 4.56,-1.27 2.99,0 5.61,1.47 7.11,3.7 -3.68,2.24 -7.03,4.58 -10.09,7.12 z m 20.12,3.55 c -4.98,2.92 -9.73,6.17 -13.88,10.23 -1.96,1.91 -3.72,3.95 -5.31,6.11 7.6,-2.83 15.41,-4.54 23.13,-5.13 4.63,-0.35 7.46,-5.59 4.75,-9.61 -2.09,-3.1 -5.69,-3.36 -8.69,-1.6 z m 41.59,-24.65 c -0.81,-0.03 -1.48,0.02 -2.07,0.15 -6.42,5.52 -14.06,10.64 -23.33,15.73 -3.03,1.66 -6.13,3.26 -9.21,4.9 1.87,0.71 3.45,1.98 4.54,3.62 13.58,-6.99 21.67,-9.36 36.86,-12.32 0.62,-1.1 0.99,-2.35 1.04,-3.69 0.15,-4.48 -3.35,-8.24 -7.83,-8.39 z m -28.96,26.67 c 0.32,0.94 0.49,1.96 0.49,3.01 0,0.14 -0.01,0.28 -0.01,0.42 12.46,-3.58 24.67,-3.57 37.57,-2.24 1.62,-1.42 2.67,-3.49 2.76,-5.81 0.11,-3.25 -1.7,-6.12 -4.42,-7.52 -14.94,2.91 -23.03,5.28 -36.39,12.14 z m -0.02,6.11 c -0.37,1.05 -0.9,2.02 -1.58,2.86 12.35,0.17 24.28,3.29 34.59,9.42 4.46,0.13 8.19,-3.36 8.34,-7.82 0.1,-2.78 -1.21,-5.29 -3.3,-6.82 -12.85,-1.34 -25.57,-1.32 -38.05,2.36 z M 110.91,96.74 c 0.89,-20.36 3.97,-43.1 15.64,-59.77 -0.58,-3.69 -3.77,-6.52 -7.63,-6.52 -0.68,0 -1.34,0.09 -1.97,0.26 -8.33,12.43 -9,43.74 -8.78,63.94 0.94,0.71 1.86,1.4 2.74,2.09 z m 18.13,4.46 c 9.12,-13.85 19.93,-26.75 33.17,-36.66 0.26,-0.77 0.4,-1.59 0.4,-2.45 0,-4.26 -3.46,-7.72 -7.73,-7.72 -0.32,0 -0.63,0.02 -0.94,0.05 -13.9,14.73 -21.87,27.56 -28.85,44.78 1.45,0.43 2.79,1.11 3.95,2 z m -6.51,-2.47 c 7.06,-17.52 15.04,-30.52 28.94,-45.39 0.02,-0.24 0.03,-0.48 0.03,-0.72 0,-4.27 -3.46,-7.73 -7.73,-7.73 -0.33,0 -0.66,0.02 -0.99,0.06 l 0.01,0.01 c -13.52,15.26 -21.53,34.21 -24.34,54.11 0.98,-0.25 2.01,-0.38 3.07,-0.38 0.34,0 0.68,0.02 1.01,0.04 z m -6.78,1.36 c 2.61,-20.19 10.29,-39.19 23.57,-54.98 -0.16,-4.12 -3.55,-7.42 -7.72,-7.42 -0.94,0 -1.84,0.17 -2.67,0.48 -12.09,16.48 -14.73,40.1 -15.55,60.67 0.58,0.54 1.12,1.09 1.62,1.68 0.25,-0.15 0.5,-0.29 0.75,-0.43 z m 16.03,4.07 c 10.47,-5.8 21.21,-10.6 30.64,-18.3 3.21,-2.62 6.09,-5.44 8.68,-8.43 v 0 0 c 0.92,-1.27 1.46,-2.83 1.46,-4.52 0,-4.02 -3.07,-7.32 -6.99,-7.69 -13.97,9.96 -25.24,23.37 -34.67,37.76 0.32,0.37 0.61,0.77 0.88,1.18 z"
   id="path7"
   inkscape:connector-curvature="0"
   style="fill:#aa0000" />
 </g>
</svg>